<svg width="40" height="40" viewBox="0 0 40 40" fill="none" xmlns="http://www.w3.org/2000/svg">
<path d="M20 35C23.4703 35 26.8333 33.7967 29.5159 31.5952C32.1985 29.3936 34.0348 26.33 34.7118 22.9264C35.3888 19.5227 34.8647 15.9896 33.2288 12.9291C31.5929 9.86849 28.9464 7.46985 25.7403 6.14181C22.5341 4.81377 18.9666 4.63851 15.6457 5.64589C12.3248 6.65328 9.45597 8.78097 7.52796 11.6664C5.59995 14.5519 4.73208 18.0166 5.07223 21.4703C5.41238 24.9239 6.9395 28.1527 9.3934 30.6066" stroke="white" stroke-width="2" stroke-linecap="round"/>
<path d="M26.6667 16.6667L19.7354 24.9842C19.0798 25.7709 18.752 26.1642 18.3115 26.1842C17.8709 26.2042 17.5088 25.8422 16.7847 25.1181L13.3334 21.6667" stroke="white" stroke-width="2" stroke-linecap="round"/>
</svg>
