<svg width="82" height="44" viewBox="0 0 82 44" fill="none" xmlns="http://www.w3.org/2000/svg">
<path d="M46.2775 28.1044C46.0733 28.1044 45.869 28.116 45.6686 28.1392C45.4373 28.116 45.2022 28.1044 44.9671 28.1044H42.9283C42.7626 28.1044 42.6007 28.1199 42.4388 28.1276C42.2769 28.1121 42.1151 28.1044 41.9493 28.1044C38.2224 28.1044 35.2007 31.6621 35.2007 36.0522C35.2007 40.4422 38.2224 44 41.9493 44C42.1151 44 42.2769 43.9884 42.4427 43.9767C42.6045 43.9884 42.7664 44 42.9283 44H44.9671C45.2022 44 45.4373 43.9884 45.6686 43.9651C45.869 43.9884 46.0733 44 46.2814 44C50.0083 44 53.03 40.4422 53.03 36.0522C53.03 31.6621 50.0083 28.1044 46.2814 28.1044H46.2775ZM46.2775 41.3249C43.8379 41.3249 41.8645 38.9634 41.8645 36.0522C41.8645 33.141 43.8417 30.7795 46.2775 30.7795C48.7134 30.7795 50.6905 33.141 50.6905 36.0522C50.6905 38.9634 48.7134 41.3249 46.2775 41.3249Z" fill="white"/>
<path d="M79.5734 29.0567L79.5542 28.9638C79.1572 27.0514 77.4768 25.681 75.5305 25.681H74.8791C72.1658 25.681 69.9689 27.8915 69.9689 30.613V33.3152C69.9689 36.0483 72.1735 38.2666 74.8984 38.2666H75.6538C77.5308 38.2666 79.1533 36.9503 79.5503 35.1076C79.982 33.1139 79.9897 31.0505 79.5734 29.0529V29.0567ZM76.7638 35.6109C75.8388 35.6109 75.0872 34.0623 75.0872 32.1538C75.0872 30.2452 75.8388 28.6967 76.7638 28.6967C77.6888 28.6967 78.4403 30.2452 78.4403 32.1538C78.4403 34.0623 77.6888 35.6109 76.7638 35.6109Z" fill="white"/>
<path fill-rule="evenodd" clip-rule="evenodd" d="M0.440414 34.5499L0.193749 33.6518C-0.164686 32.3471 -0.0220828 30.9535 0.590725 29.7495L0.891348 29.1611C1.40009 28.1584 1.66988 27.0473 1.66988 25.9208V25.4098C1.66988 21.4417 4.18664 17.9188 7.929 16.649L11.5326 15.4257C13.1167 14.8876 14.5774 14.032 15.8223 12.9093L25.2187 4.44666C27.2845 2.58843 29.9091 1.48124 32.6764 1.30316L52.5368 0.0256263C53.9127 -0.0634137 55.2925 0.0798246 56.6183 0.45147L75.0951 5.58482C76.2436 5.90614 77.157 6.78492 77.5155 7.92696L80.1363 16.2038C80.4716 17.2607 80.6643 18.3563 80.7067 19.4634L80.8416 22.847C65.0936 21.6352 57.5356 23.4935 55.4891 25.0304C63.3669 23.8806 72.455 23.7258 80.8878 24.0393L80.9533 25.6266C80.9803 26.2537 81.0497 26.877 81.1692 27.4925L81.5507 29.4669C81.5893 29.6605 81.6086 29.8579 81.6086 30.0553C81.6086 31.4916 80.6219 32.7343 79.2306 33.0556L78.7835 33.1601C78.7835 33.0595 78.7835 32.9588 78.7835 32.8582C78.7835 29.7727 77.9124 27.2757 76.841 27.2757C75.7695 27.2757 74.8985 29.7766 74.8985 32.8582C74.8985 33.2646 74.9139 33.6634 74.9409 34.0466L53.1959 39.0871C53.535 38.0341 53.72 36.8882 53.72 35.692C53.72 31.8865 51.843 28.6036 49.1297 27.0938C45.7843 25.8046 40.0263 28.9481 41.9687 39.54C42.0844 40.1672 42.0921 40.864 41.5294 41.1544C41.1555 41.3479 40.5543 41.5338 39.5985 41.6344H39.5907H39.5869L39.5946 41.6499L39.0319 41.7544C37.8872 41.9673 36.7156 42.0215 35.5593 41.9054L2.30967 38.6225C0.929889 38.487 0.0164587 37.1127 0.421143 35.781C0.544475 35.3823 0.54833 34.9525 0.43656 34.5499H0.440414ZM7.35474 22.4018H19.3257C21.9735 22.4018 23.6809 25.2239 22.4591 27.5816L20.3933 31.569C19.7843 32.742 18.578 33.4776 17.2599 33.4776H7.85963C6.08287 33.4776 4.58361 32.1536 4.36007 30.3805L3.85133 26.3931C3.58154 24.2755 5.2234 22.3979 7.35088 22.3979L7.35474 22.4018ZM26.9916 5.06994L20.7633 10.6175C19.5492 11.7015 20.3123 13.7146 21.9349 13.7146H43.8573C44.4046 13.7146 44.921 13.4591 45.2563 13.0216L50.7832 5.79387C51.7159 4.57441 50.7677 2.82458 49.2454 2.94846L28.0245 4.62861C27.6429 4.65958 27.2806 4.81443 26.9916 5.06994ZM28.4137 27.0822L38.4962 23.0444C39.3788 22.6921 40.0802 21.9953 40.4464 21.1165L41.1902 19.3241C38.9625 19.2776 35.436 19.9086 31.3159 22.4947C32.1754 21.1591 34.2412 19.0337 37.2706 17.853C33.9097 17.7872 29.5392 18.2633 27.7007 20.8997C26.8682 22.0921 26.425 23.9038 26.1938 25.4098C25.9972 26.6641 27.2421 27.5545 28.4176 27.086L28.4137 27.0822ZM50.0162 12.9906L54.9842 4.57054C55.3002 4.03243 55.8783 3.70337 56.5027 3.70337H58.1407C58.9693 3.70337 59.6824 4.28019 59.8635 5.09316L61.7251 13.5133C61.9717 14.6204 61.1315 15.6696 60.0023 15.6696H51.5347C50.1665 15.6696 49.3186 14.1752 50.0162 12.9945V12.9906ZM63.9527 14.3611L62.2762 6.52942C61.9987 5.2364 63.1819 4.10211 64.4538 4.44278L74.675 7.17205C75.2569 7.32691 75.7194 7.77211 75.9044 8.34893L77.739 14.1598C78.1167 15.3521 77.1801 16.5484 75.9391 16.4632L65.5561 15.7547C64.7698 15.7005 64.1146 15.1315 63.9489 14.3572L63.9527 14.3611Z" fill="white"/>
<path d="M18.8438 25.7739H7.20815C7.07326 25.7739 7.05013 25.5803 7.18117 25.5493L7.55888 25.4564C11.2781 24.5583 15.1631 24.5931 18.8669 25.561C18.9864 25.5919 18.9633 25.77 18.8399 25.77L18.8438 25.7739Z" fill="white"/>
<path d="M19.5761 28.3406H6.34869C6.17911 28.3406 6.15213 28.0967 6.31786 28.058L6.73796 27.965C10.9814 27.0437 15.3751 27.0824 19.6031 28.0734C19.7572 28.1083 19.7303 28.3367 19.5722 28.3367L19.5761 28.3406Z" fill="white"/>
<path d="M17.0054 30.8259H7.06556C6.96535 30.8259 6.94608 30.6827 7.04243 30.6595L7.37003 30.5704C10.5343 29.6955 13.8797 29.7303 17.0285 30.6711C17.1171 30.6982 17.0979 30.8298 17.0054 30.8298V30.8259Z" fill="white"/>
<path fill-rule="evenodd" clip-rule="evenodd" d="M3.41569 38.7234C3.07268 38.2046 2.78362 37.6356 2.55237 37.0278H20.1812C19.6994 38.2937 18.9556 39.3893 18.0383 40.2293L18.046 40.1558L3.41955 38.7195L3.41569 38.7234ZM3.68163 39.1067C4.99204 40.8758 6.91911 41.9947 9.06971 41.9947C9.16992 41.9947 9.27013 41.9947 9.36648 41.9869C9.4744 41.9908 9.57846 41.9947 9.68638 41.9947H12.6849C12.8545 41.9947 13.0202 41.9869 13.1898 41.9753C13.344 41.9869 13.502 41.9947 13.6561 41.9947C15.1747 41.9947 16.5814 41.4372 17.7377 40.4887L3.68163 39.1105V39.1067Z" fill="white"/>
</svg>
