<svg width="246" height="48" viewBox="0 0 246 48" fill="none" xmlns="http://www.w3.org/2000/svg">
<path d="M46.2775 31.1044C46.0733 31.1044 45.869 31.116 45.6686 31.1392C45.4373 31.116 45.2022 31.1044 44.9671 31.1044H42.9283C42.7626 31.1044 42.6007 31.1199 42.4388 31.1276C42.2769 31.1121 42.1151 31.1044 41.9493 31.1044C38.2224 31.1044 35.2007 34.6621 35.2007 39.0522C35.2007 43.4422 38.2224 47 41.9493 47C42.1151 47 42.2769 46.9884 42.4427 46.9767C42.6045 46.9884 42.7664 47 42.9283 47H44.9671C45.2022 47 45.4373 46.9884 45.6686 46.9651C45.869 46.9884 46.0733 47 46.2814 47C50.0083 47 53.03 43.4422 53.03 39.0522C53.03 34.6621 50.0083 31.1044 46.2814 31.1044H46.2775ZM46.2775 44.3249C43.8379 44.3249 41.8645 41.9634 41.8645 39.0522C41.8645 36.141 43.8417 33.7795 46.2775 33.7795C48.7134 33.7795 50.6905 36.141 50.6905 39.0522C50.6905 41.9634 48.7134 44.3249 46.2775 44.3249Z" fill="white"/>
<path d="M79.5734 32.0567L79.5542 31.9638C79.1572 30.0514 77.4768 28.681 75.5305 28.681H74.8791C72.1658 28.681 69.9689 30.8915 69.9689 33.613V36.3152C69.9689 39.0483 72.1735 41.2666 74.8984 41.2666H75.6538C77.5308 41.2666 79.1533 39.9503 79.5503 38.1076C79.982 36.1139 79.9897 34.0505 79.5734 32.0529V32.0567ZM76.7638 38.6109C75.8388 38.6109 75.0872 37.0623 75.0872 35.1538C75.0872 33.2452 75.8388 31.6967 76.7638 31.6967C77.6888 31.6967 78.4403 33.2452 78.4403 35.1538C78.4403 37.0623 77.6888 38.6109 76.7638 38.6109Z" fill="white"/>
<path fill-rule="evenodd" clip-rule="evenodd" d="M0.440414 37.5499L0.193749 36.6518C-0.164686 35.3471 -0.0220828 33.9535 0.590725 32.7495L0.891348 32.1611C1.40009 31.1584 1.66988 30.0473 1.66988 28.9208V28.4098C1.66988 24.4417 4.18664 20.9188 7.929 19.649L11.5326 18.4257C13.1167 17.8876 14.5774 17.032 15.8223 15.9093L25.2187 7.44666C27.2845 5.58843 29.9091 4.48124 32.6764 4.30316L52.5368 3.02563C53.9127 2.93659 55.2925 3.07982 56.6183 3.45147L75.0951 8.58482C76.2436 8.90614 77.157 9.78492 77.5155 10.927L80.1363 19.2038C80.4716 20.2607 80.6643 21.3563 80.7067 22.4634L80.8416 25.847C65.0936 24.6352 57.5356 26.4935 55.4891 28.0304C63.3669 26.8806 72.455 26.7258 80.8878 27.0393L80.9533 28.6266C80.9803 29.2537 81.0497 29.877 81.1692 30.4925L81.5507 32.4669C81.5893 32.6605 81.6086 32.8579 81.6086 33.0553C81.6086 34.4916 80.6219 35.7343 79.2306 36.0556L78.7835 36.1601C78.7835 36.0595 78.7835 35.9588 78.7835 35.8582C78.7835 32.7727 77.9124 30.2757 76.841 30.2757C75.7695 30.2757 74.8985 32.7766 74.8985 35.8582C74.8985 36.2646 74.9139 36.6634 74.9409 37.0466L53.1959 42.0871C53.535 41.0341 53.72 39.8882 53.72 38.692C53.72 34.8865 51.843 31.6036 49.1297 30.0938C45.7843 28.8046 40.0263 31.9481 41.9687 42.54C42.0844 43.1672 42.0921 43.864 41.5294 44.1544C41.1555 44.3479 40.5543 44.5338 39.5985 44.6344H39.5907H39.5869L39.5946 44.6499L39.0319 44.7544C37.8872 44.9673 36.7156 45.0215 35.5593 44.9054L2.30967 41.6225C0.929889 41.487 0.0164587 40.1127 0.421143 38.781C0.544475 38.3823 0.54833 37.9525 0.43656 37.5499H0.440414ZM7.35474 25.4018H19.3257C21.9735 25.4018 23.6809 28.2239 22.4591 30.5816L20.3933 34.569C19.7843 35.742 18.578 36.4776 17.2599 36.4776H7.85963C6.08287 36.4776 4.58361 35.1536 4.36007 33.3805L3.85133 29.3931C3.58154 27.2755 5.2234 25.3979 7.35088 25.3979L7.35474 25.4018ZM26.9916 8.06994L20.7633 13.6175C19.5492 14.7015 20.3123 16.7146 21.9349 16.7146H43.8573C44.4046 16.7146 44.921 16.4591 45.2563 16.0216L50.7832 8.79387C51.7159 7.57441 50.7677 5.82458 49.2454 5.94846L28.0245 7.62861C27.6429 7.65958 27.2806 7.81443 26.9916 8.06994ZM28.4137 30.0822L38.4962 26.0444C39.3788 25.6921 40.0802 24.9953 40.4464 24.1165L41.1902 22.3241C38.9625 22.2776 35.436 22.9086 31.3159 25.4947C32.1754 24.1591 34.2412 22.0337 37.2706 20.853C33.9097 20.7872 29.5392 21.2633 27.7007 23.8997C26.8682 25.0921 26.425 26.9038 26.1938 28.4098C25.9972 29.6641 27.2421 30.5545 28.4176 30.086L28.4137 30.0822ZM50.0162 15.9906L54.9842 7.57054C55.3002 7.03243 55.8783 6.70337 56.5027 6.70337H58.1407C58.9693 6.70337 59.6824 7.28019 59.8635 8.09316L61.7251 16.5133C61.9717 17.6204 61.1315 18.6696 60.0023 18.6696H51.5347C50.1665 18.6696 49.3186 17.1752 50.0162 15.9945V15.9906ZM63.9527 17.3611L62.2762 9.52942C61.9987 8.2364 63.1819 7.10211 64.4538 7.44278L74.675 10.1721C75.2569 10.3269 75.7194 10.7721 75.9044 11.3489L77.739 17.1598C78.1167 18.3521 77.1801 19.5484 75.9391 19.4632L65.5561 18.7547C64.7698 18.7005 64.1146 18.1315 63.9489 17.3572L63.9527 17.3611Z" fill="white"/>
<path d="M18.8438 28.7739H7.20815C7.07326 28.7739 7.05013 28.5803 7.18117 28.5493L7.55888 28.4564C11.2781 27.5583 15.1631 27.5931 18.8669 28.561C18.9864 28.5919 18.9633 28.77 18.8399 28.77L18.8438 28.7739Z" fill="white"/>
<path d="M19.5761 31.3406H6.34869C6.17911 31.3406 6.15213 31.0967 6.31786 31.058L6.73796 30.965C10.9814 30.0437 15.3751 30.0824 19.6031 31.0734C19.7572 31.1083 19.7303 31.3367 19.5722 31.3367L19.5761 31.3406Z" fill="white"/>
<path d="M17.0054 33.8259H7.06556C6.96535 33.8259 6.94608 33.6827 7.04243 33.6595L7.37003 33.5704C10.5343 32.6955 13.8797 32.7303 17.0285 33.6711C17.1171 33.6982 17.0979 33.8298 17.0054 33.8298V33.8259Z" fill="white"/>
<path fill-rule="evenodd" clip-rule="evenodd" d="M3.41569 41.7234C3.07268 41.2046 2.78362 40.6356 2.55237 40.0278H20.1812C19.6994 41.2937 18.9556 42.3893 18.0383 43.2293L18.046 43.1558L3.41955 41.7195L3.41569 41.7234ZM3.68163 42.1067C4.99204 43.8758 6.91911 44.9947 9.06971 44.9947C9.16992 44.9947 9.27013 44.9947 9.36648 44.9869C9.4744 44.9908 9.57846 44.9947 9.68638 44.9947H12.6849C12.8545 44.9947 13.0202 44.9869 13.1898 44.9753C13.344 44.9869 13.502 44.9947 13.6561 44.9947C15.1747 44.9947 16.5814 44.4372 17.7377 43.4887L3.68163 42.1105V42.1067Z" fill="white"/>
<path d="M107.044 20H103.844V5.2H107.044L113.284 14.62V5.2H116.484V20H113.284L107.044 10.6V20ZM120.187 18.8C119.16 17.8267 118.647 16.5533 118.647 14.98C118.647 13.4067 119.16 12.1333 120.187 11.16C121.227 10.1867 122.554 9.7 124.167 9.7C125.767 9.7 127.08 10.1867 128.107 11.16C129.147 12.1333 129.667 13.4067 129.667 14.98C129.667 16.54 129.147 17.8067 128.107 18.78C127.08 19.7533 125.767 20.24 124.167 20.24C122.554 20.24 121.227 19.76 120.187 18.8ZM121.747 14.96C121.747 15.72 121.967 16.3333 122.407 16.8C122.86 17.2533 123.447 17.48 124.167 17.48C124.874 17.48 125.447 17.2533 125.887 16.8C126.34 16.3333 126.567 15.72 126.567 14.96C126.567 14.2133 126.34 13.6133 125.887 13.16C125.447 12.6933 124.874 12.46 124.167 12.46C123.447 12.46 122.86 12.6933 122.407 13.16C121.967 13.6133 121.747 14.2133 121.747 14.96ZM138.333 10V12.9H137.353C135.473 12.9 134.533 13.82 134.533 15.66V20H131.453V10.02H134.353L134.513 11.5C134.979 10.4067 135.859 9.86 137.153 9.86C137.553 9.86 137.946 9.90667 138.333 10ZM142.97 20H139.89V10H142.77L142.97 11.04C143.623 10.1333 144.597 9.68 145.89 9.68C147.277 9.68 148.29 10.2667 148.93 11.44C149.197 10.9067 149.61 10.48 150.17 10.16C150.73 9.84 151.363 9.68 152.07 9.68C153.323 9.68 154.277 10.02 154.93 10.7C155.597 11.3667 155.93 12.2867 155.93 13.46V20H152.85V14.32C152.85 13.7067 152.703 13.2467 152.41 12.94C152.117 12.62 151.717 12.46 151.21 12.46C150.703 12.46 150.283 12.6267 149.95 12.96C149.617 13.2933 149.45 13.8533 149.45 14.64V20H146.37V14.32C146.37 13.72 146.223 13.2667 145.93 12.96C145.65 12.64 145.257 12.48 144.75 12.48C144.243 12.48 143.817 12.6467 143.47 12.98C143.137 13.3133 142.97 13.8667 142.97 14.64V20ZM161.152 20.26C160.099 20.26 159.259 19.9733 158.632 19.4C158.019 18.8267 157.712 18.0467 157.712 17.06C157.712 16.14 158.026 15.4067 158.652 14.86C159.292 14.3133 160.212 13.9933 161.412 13.9L164.212 13.68V13.52C164.212 12.52 163.646 12.02 162.512 12.02C161.179 12.02 160.512 12.4867 160.512 13.42H157.952C157.952 12.2867 158.379 11.38 159.232 10.7C160.099 10.02 161.246 9.68 162.672 9.68C164.126 9.68 165.246 10.0733 166.032 10.86C166.819 11.6333 167.212 12.7333 167.212 14.16V20H164.492L164.292 18.68C164.132 19.1333 163.752 19.5133 163.152 19.82C162.566 20.1133 161.899 20.26 161.152 20.26ZM162.232 17.98C162.846 17.98 163.332 17.8333 163.692 17.54C164.052 17.2467 164.232 16.82 164.232 16.26V15.72L162.672 15.86C162.006 15.9133 161.532 16.0267 161.252 16.2C160.986 16.36 160.852 16.6 160.852 16.92C160.852 17.6267 161.312 17.98 162.232 17.98ZM172.501 20H169.421V10H172.321L172.521 11.04C173.175 10.1333 174.195 9.68 175.581 9.68C176.768 9.68 177.688 10.0467 178.341 10.78C179.008 11.5 179.341 12.5133 179.341 13.82V20H176.261V14.56C176.261 13.9333 176.101 13.4333 175.781 13.06C175.461 12.6733 175.035 12.48 174.501 12.48C173.888 12.48 173.401 12.6667 173.041 13.04C172.681 13.4 172.501 13.8933 172.501 14.52V20ZM185.75 20.26C184.31 20.26 183.157 19.7867 182.29 18.84C181.437 17.8933 181.01 16.6333 181.01 15.06C181.01 13.46 181.457 12.1667 182.35 11.18C183.244 10.18 184.444 9.68 185.95 9.68C186.564 9.68 187.144 9.79333 187.69 10.02C188.237 10.2467 188.657 10.5467 188.95 10.92V4.92H192.03V20H189.13L188.97 18.72C188.704 19.1867 188.277 19.56 187.69 19.84C187.104 20.12 186.457 20.26 185.75 20.26ZM184.75 16.76C185.19 17.2133 185.77 17.44 186.49 17.44C187.21 17.44 187.797 17.2133 188.25 16.76C188.704 16.2933 188.93 15.6867 188.93 14.94C188.93 14.1933 188.704 13.5933 188.25 13.14C187.797 12.6733 187.21 12.44 186.49 12.44C185.77 12.44 185.19 12.6733 184.75 13.14C184.324 13.5933 184.11 14.1933 184.11 14.94C184.11 15.6867 184.324 16.2933 184.75 16.76ZM193.543 24.8V22.22H195.243C195.763 22.22 196.156 22.12 196.423 21.92C196.69 21.72 196.923 21.3533 197.123 20.82L197.303 20.34L193.283 10H196.583L198.763 16.42L201.183 10H204.383L199.303 22.18C198.89 23.1933 198.383 23.9267 197.783 24.38C197.196 24.8467 196.463 25.08 195.583 25.08C194.85 25.08 194.17 24.9867 193.543 24.8ZM103.024 33.5C103.024 32.1667 103.531 31.0733 104.544 30.22C105.571 29.3533 106.878 28.92 108.464 28.92C110.051 28.92 111.311 29.3333 112.244 30.16C113.178 30.9733 113.644 32.08 113.644 33.48H110.424C110.424 32.96 110.244 32.5533 109.884 32.26C109.524 31.9533 109.038 31.8 108.424 31.8C107.758 31.8 107.231 31.94 106.844 32.22C106.458 32.5 106.264 32.8867 106.264 33.38C106.264 33.82 106.384 34.1667 106.624 34.42C106.864 34.66 107.244 34.8333 107.764 34.94L109.984 35.4C111.318 35.6667 112.298 36.1333 112.924 36.8C113.564 37.4667 113.884 38.38 113.884 39.54C113.884 40.9667 113.371 42.1133 112.344 42.98C111.318 43.8333 109.951 44.26 108.244 44.26C106.591 44.26 105.271 43.8467 104.284 43.02C103.298 42.1933 102.804 41.0867 102.804 39.7H106.024C106.024 40.2467 106.218 40.6667 106.604 40.96C106.991 41.24 107.544 41.38 108.264 41.38C108.998 41.38 109.578 41.2467 110.004 40.98C110.431 40.7 110.644 40.3267 110.644 39.86C110.644 39.4467 110.538 39.1267 110.324 38.9C110.124 38.6733 109.778 38.5133 109.284 38.42L107.024 37.96C104.358 37.4133 103.024 35.9267 103.024 33.5ZM118.732 44H115.652V28.92H118.752V35.04C119.405 34.1333 120.425 33.68 121.812 33.68C122.998 33.68 123.918 34.0467 124.572 34.78C125.238 35.5 125.572 36.5133 125.572 37.82V44H122.492V38.56C122.492 37.9333 122.332 37.4333 122.012 37.06C121.692 36.6733 121.265 36.48 120.732 36.48C120.118 36.48 119.632 36.6667 119.272 37.04C118.912 37.4 118.732 37.8933 118.732 38.52V44ZM134.421 34H137.501V44H134.601L134.401 42.88C134.094 43.2933 133.654 43.6267 133.081 43.88C132.521 44.1333 131.941 44.26 131.341 44.26C130.207 44.26 129.307 43.9067 128.641 43.2C127.987 42.48 127.661 41.5067 127.661 40.28V34H130.741V39.16C130.741 39.9733 130.887 40.5733 131.181 40.96C131.474 41.3333 131.934 41.52 132.561 41.52C133.214 41.52 133.687 41.34 133.981 40.98C134.274 40.62 134.421 40.0267 134.421 39.2V34ZM143.852 44H140.772V36.56H138.872V34H140.772V30.9H143.852V34H145.752V36.56H143.852V44ZM151.567 44H148.487V36.56H146.587V34H148.487V30.9H151.567V34H153.467V36.56H151.567V44ZM157.931 44H154.851V28.92H157.931V44ZM164.882 44.26C163.375 44.26 162.135 43.7667 161.162 42.78C160.188 41.78 159.702 40.5133 159.702 38.98C159.702 37.42 160.175 36.1467 161.122 35.16C162.082 34.1733 163.315 33.68 164.822 33.68C166.395 33.68 167.635 34.16 168.542 35.12C169.462 36.08 169.922 37.3733 169.922 39V39.78L162.662 39.82C162.835 41.1133 163.595 41.76 164.942 41.76C165.528 41.76 166.015 41.66 166.402 41.46C166.788 41.26 167.035 40.98 167.142 40.62H169.962C169.775 41.7267 169.222 42.6133 168.302 43.28C167.395 43.9333 166.255 44.26 164.882 44.26ZM164.842 36.18C163.642 36.18 162.928 36.76 162.702 37.92H166.862C166.862 37.3867 166.675 36.9667 166.302 36.66C165.942 36.34 165.455 36.18 164.842 36.18ZM183.218 44H177.418V29.2H183.018C185.192 29.2 186.958 29.8933 188.318 31.28C189.692 32.6533 190.378 34.44 190.378 36.64C190.378 38.8 189.712 40.5667 188.378 41.94C187.045 43.3133 185.325 44 183.218 44ZM182.698 32.2H180.658V41H182.898C184.178 41 185.172 40.62 185.878 39.86C186.598 39.0867 186.958 38.0133 186.958 36.64C186.958 35.24 186.585 34.1533 185.838 33.38C185.092 32.5933 184.045 32.2 182.698 32.2ZM199.133 34V36.9H198.153C196.273 36.9 195.333 37.82 195.333 39.66V44H192.253V34.02H195.153L195.313 35.5C195.78 34.4067 196.66 33.86 197.953 33.86C198.353 33.86 198.747 33.9067 199.133 34ZM202.211 32.44C201.717 32.44 201.297 32.2733 200.951 31.94C200.617 31.5933 200.451 31.1733 200.451 30.68C200.451 30.1867 200.617 29.7733 200.951 29.44C201.297 29.1067 201.717 28.94 202.211 28.94C202.691 28.94 203.097 29.1067 203.431 29.44C203.777 29.7733 203.951 30.1867 203.951 30.68C203.951 31.1733 203.777 31.5933 203.431 31.94C203.097 32.2733 202.691 32.44 202.211 32.44ZM200.691 44V34H203.771V44H200.691ZM208.921 44L205.021 34H208.341L209.561 37.5C210.135 39.1933 210.461 40.2533 210.541 40.68C210.661 40.0667 211.015 39.0067 211.601 37.5L212.941 34H216.141L211.961 44H208.921ZM221.542 44.26C220.035 44.26 218.795 43.7667 217.822 42.78C216.848 41.78 216.362 40.5133 216.362 38.98C216.362 37.42 216.835 36.1467 217.782 35.16C218.742 34.1733 219.975 33.68 221.482 33.68C223.055 33.68 224.295 34.16 225.202 35.12C226.122 36.08 226.582 37.3733 226.582 39V39.78L219.322 39.82C219.495 41.1133 220.255 41.76 221.602 41.76C222.188 41.76 222.675 41.66 223.062 41.46C223.448 41.26 223.695 40.98 223.802 40.62H226.622C226.435 41.7267 225.882 42.6133 224.962 43.28C224.055 43.9333 222.915 44.26 221.542 44.26ZM221.502 36.18C220.302 36.18 219.588 36.76 219.362 37.92H223.522C223.522 37.3867 223.335 36.9667 222.962 36.66C222.602 36.34 222.115 36.18 221.502 36.18ZM235.286 34V36.9H234.306C232.426 36.9 231.486 37.82 231.486 39.66V44H228.406V34.02H231.306L231.466 35.5C231.932 34.4067 232.812 33.86 234.106 33.86C234.506 33.86 234.899 33.9067 235.286 34ZM236.123 40.84H239.043C239.083 41.5867 239.583 41.96 240.543 41.96C241.477 41.96 241.943 41.6733 241.943 41.1C241.943 40.7133 241.643 40.4533 241.043 40.32L239.203 39.92C238.256 39.72 237.563 39.3933 237.123 38.94C236.683 38.4733 236.463 37.8133 236.463 36.96C236.463 35.9467 236.85 35.1467 237.623 34.56C238.41 33.9733 239.416 33.68 240.643 33.68C241.803 33.68 242.75 33.9933 243.483 34.62C244.217 35.2467 244.583 36.06 244.583 37.06H241.663C241.663 36.7133 241.557 36.44 241.343 36.24C241.143 36.0267 240.863 35.92 240.503 35.92C240.156 35.92 239.876 36.0067 239.663 36.18C239.463 36.34 239.363 36.5533 239.363 36.82C239.363 37.2467 239.723 37.54 240.443 37.7L242.303 38.1C243.157 38.2867 243.79 38.5933 244.203 39.02C244.63 39.4467 244.843 40.0467 244.843 40.82C244.843 41.8733 244.437 42.7133 243.623 43.34C242.81 43.9533 241.743 44.26 240.423 44.26C239.117 44.26 238.07 43.9467 237.283 43.32C236.51 42.68 236.123 41.8533 236.123 40.84Z" fill="white"/>
</svg>
