<svg width="143" height="41" viewBox="0 0 143 41" fill="none" xmlns="http://www.w3.org/2000/svg">
<path d="M5.04426 16H1.84426V1.2H5.04426L11.2843 10.62V1.2H14.4843V16H11.2843L5.04426 6.6V16ZM18.1869 14.8C17.1602 13.8267 16.6469 12.5533 16.6469 10.98C16.6469 9.40667 17.1602 8.13333 18.1869 7.16C19.2269 6.18667 20.5536 5.7 22.1669 5.7C23.7669 5.7 25.0803 6.18667 26.1069 7.16C27.1469 8.13333 27.6669 9.40667 27.6669 10.98C27.6669 12.54 27.1469 13.8067 26.1069 14.78C25.0803 15.7533 23.7669 16.24 22.1669 16.24C20.5536 16.24 19.2269 15.76 18.1869 14.8ZM19.7469 10.96C19.7469 11.72 19.9669 12.3333 20.4069 12.8C20.8603 13.2533 21.4469 13.48 22.1669 13.48C22.8736 13.48 23.4469 13.2533 23.8869 12.8C24.3403 12.3333 24.5669 11.72 24.5669 10.96C24.5669 10.2133 24.3403 9.61333 23.8869 9.16C23.4469 8.69333 22.8736 8.46 22.1669 8.46C21.4469 8.46 20.8603 8.69333 20.4069 9.16C19.9669 9.61333 19.7469 10.2133 19.7469 10.96ZM36.3325 6V8.9H35.3525C33.4725 8.9 32.5325 9.82 32.5325 11.66V16H29.4525V6.02H32.3525L32.5125 7.5C32.9792 6.40667 33.8592 5.86 35.1525 5.86C35.5525 5.86 35.9459 5.90667 36.3325 6ZM40.97 16H37.89V6H40.77L40.97 7.04C41.6234 6.13333 42.5967 5.68 43.89 5.68C45.2767 5.68 46.29 6.26667 46.93 7.44C47.1967 6.90667 47.61 6.48 48.17 6.16C48.73 5.84 49.3634 5.68 50.07 5.68C51.3234 5.68 52.2767 6.02 52.93 6.7C53.5967 7.36667 53.93 8.28667 53.93 9.46V16H50.85V10.32C50.85 9.70667 50.7034 9.24667 50.41 8.94C50.1167 8.62 49.7167 8.46 49.21 8.46C48.7034 8.46 48.2834 8.62667 47.95 8.96C47.6167 9.29333 47.45 9.85333 47.45 10.64V16H44.37V10.32C44.37 9.72 44.2234 9.26667 43.93 8.96C43.65 8.64 43.2567 8.48 42.75 8.48C42.2434 8.48 41.8167 8.64667 41.47 8.98C41.1367 9.31333 40.97 9.86667 40.97 10.64V16ZM59.1522 16.26C58.0989 16.26 57.2589 15.9733 56.6322 15.4C56.0189 14.8267 55.7122 14.0467 55.7122 13.06C55.7122 12.14 56.0256 11.4067 56.6522 10.86C57.2922 10.3133 58.2122 9.99333 59.4122 9.9L62.2122 9.68V9.52C62.2122 8.52 61.6456 8.02 60.5122 8.02C59.1789 8.02 58.5122 8.48667 58.5122 9.42H55.9522C55.9522 8.28667 56.3789 7.38 57.2322 6.7C58.0989 6.02 59.2456 5.68 60.6722 5.68C62.1256 5.68 63.2456 6.07333 64.0322 6.86C64.8189 7.63333 65.2122 8.73333 65.2122 10.16V16H62.4922L62.2922 14.68C62.1322 15.1333 61.7522 15.5133 61.1522 15.82C60.5656 16.1133 59.8989 16.26 59.1522 16.26ZM60.2322 13.98C60.8456 13.98 61.3322 13.8333 61.6922 13.54C62.0522 13.2467 62.2322 12.82 62.2322 12.26V11.72L60.6722 11.86C60.0056 11.9133 59.5322 12.0267 59.2522 12.2C58.9856 12.36 58.8522 12.6 58.8522 12.92C58.8522 13.6267 59.3122 13.98 60.2322 13.98ZM70.5013 16H67.4213V6H70.3213L70.5213 7.04C71.1746 6.13333 72.1946 5.68 73.5813 5.68C74.768 5.68 75.688 6.04667 76.3413 6.78C77.008 7.5 77.3413 8.51333 77.3413 9.82V16H74.2613V10.56C74.2613 9.93333 74.1013 9.43333 73.7813 9.06C73.4613 8.67333 73.0346 8.48 72.5013 8.48C71.888 8.48 71.4013 8.66667 71.0413 9.04C70.6813 9.4 70.5013 9.89333 70.5013 10.52V16ZM83.7502 16.26C82.3102 16.26 81.1569 15.7867 80.2902 14.84C79.4369 13.8933 79.0102 12.6333 79.0102 11.06C79.0102 9.46 79.4569 8.16667 80.3502 7.18C81.2435 6.18 82.4435 5.68 83.9502 5.68C84.5635 5.68 85.1435 5.79333 85.6902 6.02C86.2369 6.24667 86.6569 6.54667 86.9502 6.92V0.92H90.0302V16H87.1302L86.9702 14.72C86.7035 15.1867 86.2769 15.56 85.6902 15.84C85.1035 16.12 84.4569 16.26 83.7502 16.26ZM82.7502 12.76C83.1902 13.2133 83.7702 13.44 84.4902 13.44C85.2102 13.44 85.7969 13.2133 86.2502 12.76C86.7035 12.2933 86.9302 11.6867 86.9302 10.94C86.9302 10.1933 86.7035 9.59333 86.2502 9.14C85.7969 8.67333 85.2102 8.44 84.4902 8.44C83.7702 8.44 83.1902 8.67333 82.7502 9.14C82.3235 9.59333 82.1102 10.1933 82.1102 10.94C82.1102 11.6867 82.3235 12.2933 82.7502 12.76ZM91.5432 20.8V18.22H93.2432C93.7632 18.22 94.1565 18.12 94.4232 17.92C94.6898 17.72 94.9232 17.3533 95.1232 16.82L95.3032 16.34L91.2832 6H94.5832L96.7632 12.42L99.1832 6H102.383L97.3032 18.18C96.8898 19.1933 96.3832 19.9267 95.7832 20.38C95.1965 20.8467 94.4632 21.08 93.5832 21.08C92.8498 21.08 92.1698 20.9867 91.5432 20.8ZM1.02426 29.5C1.02426 28.1667 1.53093 27.0733 2.54426 26.22C3.57093 25.3533 4.87759 24.92 6.46426 24.92C8.05093 24.92 9.31093 25.3333 10.2443 26.16C11.1776 26.9733 11.6443 28.08 11.6443 29.48H8.42426C8.42426 28.96 8.24426 28.5533 7.88426 28.26C7.52426 27.9533 7.03759 27.8 6.42426 27.8C5.75759 27.8 5.23093 27.94 4.84426 28.22C4.45759 28.5 4.26426 28.8867 4.26426 29.38C4.26426 29.82 4.38426 30.1667 4.62426 30.42C4.86426 30.66 5.24426 30.8333 5.76426 30.94L7.98426 31.4C9.31759 31.6667 10.2976 32.1333 10.9243 32.8C11.5643 33.4667 11.8843 34.38 11.8843 35.54C11.8843 36.9667 11.3709 38.1133 10.3443 38.98C9.31759 39.8333 7.95093 40.26 6.24426 40.26C4.59093 40.26 3.27093 39.8467 2.28426 39.02C1.29759 38.1933 0.80426 37.0867 0.80426 35.7H4.02426C4.02426 36.2467 4.21759 36.6667 4.60426 36.96C4.99093 37.24 5.54426 37.38 6.26426 37.38C6.99759 37.38 7.57759 37.2467 8.00426 36.98C8.43093 36.7 8.64426 36.3267 8.64426 35.86C8.64426 35.4467 8.53759 35.1267 8.32426 34.9C8.12426 34.6733 7.77759 34.5133 7.28426 34.42L5.02426 33.96C2.35759 33.4133 1.02426 31.9267 1.02426 29.5ZM16.7318 40H13.6518V24.92H16.7518V31.04C17.4051 30.1333 18.4251 29.68 19.8118 29.68C20.9984 29.68 21.9184 30.0467 22.5718 30.78C23.2384 31.5 23.5718 32.5133 23.5718 33.82V40H20.4918V34.56C20.4918 33.9333 20.3318 33.4333 20.0118 33.06C19.6918 32.6733 19.2651 32.48 18.7318 32.48C18.1184 32.48 17.6318 32.6667 17.2718 33.04C16.9118 33.4 16.7318 33.8933 16.7318 34.52V40ZM32.4207 30H35.5007V40H32.6007L32.4007 38.88C32.094 39.2933 31.654 39.6267 31.0807 39.88C30.5207 40.1333 29.9407 40.26 29.3407 40.26C28.2073 40.26 27.3073 39.9067 26.6407 39.2C25.9873 38.48 25.6607 37.5067 25.6607 36.28V30H28.7407V35.16C28.7407 35.9733 28.8873 36.5733 29.1807 36.96C29.474 37.3333 29.934 37.52 30.5607 37.52C31.214 37.52 31.6873 37.34 31.9807 36.98C32.274 36.62 32.4207 36.0267 32.4207 35.2V30ZM41.8519 40H38.7719V32.56H36.8719V30H38.7719V26.9H41.8519V30H43.7519V32.56H41.8519V40ZM49.5668 40H46.4868V32.56H44.5868V30H46.4868V26.9H49.5668V30H51.4668V32.56H49.5668V40ZM55.931 40H52.851V24.92H55.931V40ZM62.8816 40.26C61.3749 40.26 60.1349 39.7667 59.1616 38.78C58.1883 37.78 57.7016 36.5133 57.7016 34.98C57.7016 33.42 58.1749 32.1467 59.1216 31.16C60.0816 30.1733 61.3149 29.68 62.8216 29.68C64.3949 29.68 65.6349 30.16 66.5416 31.12C67.4616 32.08 67.9216 33.3733 67.9216 35V35.78L60.6616 35.82C60.8349 37.1133 61.5949 37.76 62.9416 37.76C63.5283 37.76 64.0149 37.66 64.4016 37.46C64.7883 37.26 65.0349 36.98 65.1416 36.62H67.9616C67.7749 37.7267 67.2216 38.6133 66.3016 39.28C65.3949 39.9333 64.2549 40.26 62.8816 40.26ZM62.8416 32.18C61.6416 32.18 60.9283 32.76 60.7016 33.92H64.8616C64.8616 33.3867 64.6749 32.9667 64.3016 32.66C63.9416 32.34 63.4549 32.18 62.8416 32.18ZM81.2185 40H75.4185V25.2H81.0185C83.1918 25.2 84.9585 25.8933 86.3185 27.28C87.6918 28.6533 88.3785 30.44 88.3785 32.64C88.3785 34.8 87.7118 36.5667 86.3785 37.94C85.0451 39.3133 83.3251 40 81.2185 40ZM80.6985 28.2H78.6585V37H80.8985C82.1785 37 83.1718 36.62 83.8785 35.86C84.5985 35.0867 84.9585 34.0133 84.9585 32.64C84.9585 31.24 84.5851 30.1533 83.8385 29.38C83.0918 28.5933 82.0451 28.2 80.6985 28.2ZM97.1333 30V32.9H96.1533C94.2733 32.9 93.3333 33.82 93.3333 35.66V40H90.2533V30.02H93.1533L93.3133 31.5C93.78 30.4067 94.66 29.86 95.9533 29.86C96.3533 29.86 96.7467 29.9067 97.1333 30ZM100.211 28.44C99.7175 28.44 99.2975 28.2733 98.9508 27.94C98.6175 27.5933 98.4508 27.1733 98.4508 26.68C98.4508 26.1867 98.6175 25.7733 98.9508 25.44C99.2975 25.1067 99.7175 24.94 100.211 24.94C100.691 24.94 101.097 25.1067 101.431 25.44C101.777 25.7733 101.951 26.1867 101.951 26.68C101.951 27.1733 101.777 27.5933 101.431 27.94C101.097 28.2733 100.691 28.44 100.211 28.44ZM98.6908 40V30H101.771V40H98.6908ZM106.921 40L103.021 30H106.341L107.561 33.5C108.135 35.1933 108.461 36.2533 108.541 36.68C108.661 36.0667 109.015 35.0067 109.601 33.5L110.941 30H114.141L109.961 40H106.921ZM119.542 40.26C118.035 40.26 116.795 39.7667 115.822 38.78C114.848 37.78 114.362 36.5133 114.362 34.98C114.362 33.42 114.835 32.1467 115.782 31.16C116.742 30.1733 117.975 29.68 119.482 29.68C121.055 29.68 122.295 30.16 123.202 31.12C124.122 32.08 124.582 33.3733 124.582 35V35.78L117.322 35.82C117.495 37.1133 118.255 37.76 119.602 37.76C120.188 37.76 120.675 37.66 121.062 37.46C121.448 37.26 121.695 36.98 121.802 36.62H124.622C124.435 37.7267 123.882 38.6133 122.962 39.28C122.055 39.9333 120.915 40.26 119.542 40.26ZM119.502 32.18C118.302 32.18 117.588 32.76 117.362 33.92H121.522C121.522 33.3867 121.335 32.9667 120.962 32.66C120.602 32.34 120.115 32.18 119.502 32.18ZM133.286 30V32.9H132.306C130.426 32.9 129.486 33.82 129.486 35.66V40H126.406V30.02H129.306L129.466 31.5C129.932 30.4067 130.812 29.86 132.106 29.86C132.506 29.86 132.899 29.9067 133.286 30ZM134.123 36.84H137.043C137.083 37.5867 137.583 37.96 138.543 37.96C139.477 37.96 139.943 37.6733 139.943 37.1C139.943 36.7133 139.643 36.4533 139.043 36.32L137.203 35.92C136.256 35.72 135.563 35.3933 135.123 34.94C134.683 34.4733 134.463 33.8133 134.463 32.96C134.463 31.9467 134.85 31.1467 135.623 30.56C136.41 29.9733 137.416 29.68 138.643 29.68C139.803 29.68 140.75 29.9933 141.483 30.62C142.217 31.2467 142.583 32.06 142.583 33.06H139.663C139.663 32.7133 139.557 32.44 139.343 32.24C139.143 32.0267 138.863 31.92 138.503 31.92C138.156 31.92 137.876 32.0067 137.663 32.18C137.463 32.34 137.363 32.5533 137.363 32.82C137.363 33.2467 137.723 33.54 138.443 33.7L140.303 34.1C141.157 34.2867 141.79 34.5933 142.203 35.02C142.63 35.4467 142.843 36.0467 142.843 36.82C142.843 37.8733 142.437 38.7133 141.623 39.34C140.81 39.9533 139.743 40.26 138.423 40.26C137.117 40.26 136.07 39.9467 135.283 39.32C134.51 38.68 134.123 37.8533 134.123 36.84Z" fill="white"/>
</svg>
